<svg xmlns="http://www.w3.org/2000/svg" xmlns:xlink="http://www.w3.org/1999/xlink" enable-background="new 0 0 72 72" viewBox="0 0 72 72"><path fill="#7AC595" d="M71,36c0,19.3269-15.6679,35-35,35C16.6874,71,1,55.3499,1,36C1,16.67,16.67,1,36,1
		C55.3301,1,71,16.67,71,36z"/><defs><path id="a" d="M71,36c0,19.3269-15.6679,35-35,35C16.6874,71,1,55.3499,1,36C1,16.67,16.67,1,36,1
				C55.3301,1,71,16.67,71,36z"/></defs><clipPath id="b"><use overflow="visible" xlink:href="#a"/></clipPath><g clip-path="url(#b)"><polygon fill="#FAB687" points="22.448 49.407 49.435 49.407 49.205 63.663 31.308 68.958 23.008 61.767"/><path fill="#2EA6C1" d="M61.6071,60.3032c-0.5311-5.8795-5.576-10.5355-11.4459-10.877c-0.2371-0.0095-0.4647-0.019-0.7112-0.019
				h-3.2932c-1.8256,3.2373-3.7425,6.5033-5.9437,9.4325c-1.2049,1.6034-3.0192,4.7531-5.4399,4.0291
				c-2.5344-0.758-4.1965-3.809-5.1244-6.0139c-0.9416-2.2375-2.8476-4.8995-3.2177-7.4477h-4.0076
				c-0.2276,0-0.4647,0.0095-0.7017,0.019c-5.851,0.3414-10.9149,4.988-11.4554,10.877L9.6405,71h52.602L61.6071,60.3032z"/><path fill="#F8A771" d="M41.7069,40.7366v8.2991c0,3.3876-2.5038,6.1325-5.5937,6.1325h-0.3433
				c-3.09,0-5.5938-2.7449-5.5938-6.1325v-8.2991H41.7069z"/><ellipse cx="35.941" cy="31.107" fill="#FAB687" rx="13.958" ry="16.58"/><path fill="#3D2F46" d="M52.8122,27.7901c0,0.8282-0.1523,1.6373-0.4379,2.3893c-0.3427-0.8567-1.0281-1.485-1.8658-1.5897
				c-0.1809-0.0285-0.3427,0.1142-0.3617,0.3046l-0.3807,4.5312c-0.476,0.3046-1.1614-0.0666-1.1423-0.6854
				c0.0476-1.5706,0.0952-3.1413,0.1523-4.712c-0.5045,0.3046-1.0471,0.495-1.6087,0.5902
				c-0.6949,0.0952-1.4279,0.0381-2.0466-0.3046c-0.6188-0.3522-1.1708-0.9519-1.2756-1.7325
				c-1.3898,1.1518-3.0842,1.8181-4.8167,1.9229c-1.2946,0.0666-2.6273-0.1904-3.7315-0.9139
				c-1.1137-0.733-1.9705-2.0752-2.1514-3.4935c-0.99,0.4569-2.1228,0.4569-3.1033,0c-0.9995-0.476-1.7896-1.3898-2.1608-2.494
				c-1.6183-0.2285-3.2937,0.7901-4.0267,2.3893c-0.5331,1.1614-0.8377,2.4179-0.8758,3.7316
				c-0.0286,1.7896-0.0762,3.5792-0.1142,5.3783c-0.0095,0.3237-0.3141,0.5712-0.5902,0.5426c-0.0476,0.0095-0.0952,0-0.1333-0.019
				l-0.4093-4.7311c-0.0095-0.0857-0.0476-0.1523-0.1047-0.2094c-0.0571-0.0762-0.1523-0.1143-0.2475-0.0952
				c-0.0571,0.0095-0.1047,0.0191-0.1523,0.0381c-0.019,0-0.0381,0.0095-0.0571,0.0095c-0.5616,0.1142-1.0471,0.457-1.3898,0.9234
				c-0.0286-2.1799-0.2761-5.4164-0.1523-6.8253c0.5426-6.3874,3.7601-10.3379,9.5478-12.0418
				c-0.0762-0.0952-0.1713-0.2095-0.2475-0.3142c-0.2094-0.2665-0.3998-0.5521-0.4569-0.8758
				c-0.0857-0.5711,0.257-1.1423,0.7235-1.3803c0.476-0.2189,1.0185-0.1523,1.4945,0.0571c0.4665,0.219,1.1233,0.3903,1.5136,0.7425
				c0.4474-0.6854,1.0471-1.247,1.7325-1.6183c0.3903-0.2095,0.8377-0.3427,1.2661-0.2951
				c0.4378,0.0666,0.8567,0.3903,0.9995,0.8377c0.1047,0.3998-0.0191,0.8662-0.257,1.1994
				c-0.1904,0.3046-0.4284,0.5045-0.6949,0.7044c0.1428,0,0.2665-0.0191,0.4093-0.0191
				c10.0332-0.3713,16.6871,3.5983,17.1155,15.2974C52.8027,25.9434,52.8122,26.8667,52.8122,27.7901z"/><path fill="#CED7DC" d="M48.4495,49.4073L37.1174,65.8128c-0.2655,0.3888-0.7017,0.6164-1.1759,0.6164
					c-0.4647,0-0.9009-0.2276-1.1664-0.6164L23.4335,49.4073h3.4613l9.0467,13.096l9.0562-13.096H48.4495z"/><circle cx="40.996" cy="34.378" r="1.662" fill="#3D2F46"/><circle cx="30.887" cy="34.378" r="1.662" fill="#3D2F46"/><path fill="#3D2F46" d="M31.648 30.0635l-3.0914.6069c-.4078.0758-.6733.4741-.5974.8819v.0095c.0853.4077.4836.6732.8914.5879l3.0914-.5974c.3604-.0759.6069-.3983.6069-.7491 0-.0474 0-.0948-.0095-.1423C32.4541 30.2436 32.0652 29.9781 31.648 30.0635zM43.3264 30.6704l-3.0914-.6069c-.4172-.0854-.8061.1802-.8914.5974-.0095.0474-.0095.0948-.0095.1423 0 .3509.2466.6733.6069.7491l3.0914.5974c.4078.0853.8061-.1802.8914-.5879v-.0095C43.9997 31.1445 43.7342 30.7462 43.3264 30.6704z"/><path fill="#663430" d="M41.4843,39.7557c-0.0762,1.2851-0.6188,2.4274-1.4565,3.2841
					c-0.019,0.0191-0.0285,0.0286-0.0476,0.0476c-0.1047,0.1048-0.2094,0.2094-0.3331,0.3046
					c-0.8377,0.733-1.9324,1.2185-3.1413,1.3327c-0.1713,0.0095-0.3617,0.0191-0.5426,0.0191c-0.2666,0-0.5235-0.0191-0.7806-0.0476
					c-0.238-0.0381-0.4664-0.0856-0.6949-0.1523c-0.0191,0-0.0286-0.0095-0.0476-0.0095c-0.0381-0.0095-0.0856-0.0285-0.1238-0.0381
					c-2.1323-0.6188-3.76-2.4655-3.8838-4.7406H41.4843z"/><path fill="#FFF" d="M38.7047,39.7557v0.9805c0,0.2285-0.1619,0.3998-0.3617,0.3998h-4.7977
					c-0.1999,0-0.3712-0.1713-0.3712-0.3998v-0.9805H38.7047z"/><path fill="#EF4F63" d="M40.0279,43.0398c-0.019,0.0191-0.0285,0.0286-0.0476,0.0476
					c-0.1047,0.1048-0.2094,0.2094-0.3331,0.3046c-0.8377,0.733-1.9324,1.2185-3.1413,1.3327
					c-0.1713,0.0095-0.3617,0.0191-0.5426,0.0191c-0.2666,0-0.5235-0.0191-0.7806-0.0476c-0.257-0.0381-0.5045-0.0856-0.752-0.1523
					l0.0095-0.0095c0.1238-0.3046,0.3237-0.5807,0.5617-0.8377c0.6282-0.6949,1.5421-1.1328,2.4845-1.2089
					c0.7425-0.0476,1.485,0.1428,2.1894,0.4093C39.7899,42.9447,39.9136,42.9827,40.0279,43.0398z"/><g><path fill="#F8A771" d="M52.6103 31.5692c-.0848.7385-.4325 1.3841-.9247 1.8222-.4944.4354-1.136.6656-1.7976.5896l0 0c-.1766-.0203-.3033-.1798-.283-.3564l.5438-4.7384c.0203-.1766.1798-.3033.3564-.283l0 0C51.8359 28.7561 52.7806 30.0848 52.6103 31.5692zM19.2768 31.5658c.0848.7385.4325 1.3841.9247 1.8222.4944.4354 1.136.6656 1.7976.5896l0 0c.1766-.0203.3033-.1798.283-.3564l-.5438-4.7384c-.0203-.1766-.1798-.3033-.3564-.283l0 0C20.0513 28.7527 19.1065 30.0814 19.2768 31.5658z"/></g></g></svg>