<svg xmlns="http://www.w3.org/2000/svg" viewBox="0 0 50 50"><path d="M24 49h2a5.01 5.01 0 0 0 4.899-4H49v-6.618l-6-3V23c0-8.2-5.517-15.122-13.029-17.286C29.819 3.092 27.659 1 25 1s-4.819 2.092-4.971 4.714C12.517 7.878 7 14.8 7 23v12.382l-6 3V45h18.101A5.01 5.01 0 0 0 24 49zm2-2h-2a3.006 3.006 0 0 1-2.829-2h7.657A3.004 3.004 0 0 1 26 47zM25 3c1.396 0 2.561.962 2.895 2.255C26.95 5.101 25.988 5 25 5s-1.95.101-2.895.255A2.997 2.997 0 0 1 25 3zM3 39.618l6-3V23c0-8.822 7.178-16 16-16s16 7.178 16 16v13.618l6 3V43H3v-3.382z"/></svg>