<svg xmlns="http://www.w3.org/2000/svg" enable-background="new 0 0 60 60" viewBox="0 0 60 60"><path d="M23.6005859,41.0629883c4.3269653,0,8.4020996-1.5807495,11.6032715-4.4411011l17.2312012,17.2316284l1.4140625-1.4140625
	l-17.232605-17.2330933c6.1074219-6.8466797,5.8967896-17.3781128-0.6712036-23.946106
	c-3.2973633-3.2978516-7.6816406-5.1137695-12.3447266-5.1137695s-9.0473633,1.815918-12.3447266,5.1137695
	c-6.8066406,6.8066406-6.8066406,17.8823242,0,24.6889648C14.5532227,39.2470703,18.9375,41.0629883,23.6005859,41.0629883z
	 M12.6699219,12.6743164c2.9199219-2.9199219,6.8017578-4.527832,10.9306641-4.527832s8.0107422,1.6079102,10.9306641,4.527832
	c6.0268555,6.0268555,6.0268555,15.8339844,0,21.8608398c-2.9199219,2.9199219-6.8017578,4.527832-10.9306641,4.527832
	s-8.0107422-1.6079102-10.9306641-4.527832C6.6430664,28.5083008,6.6430664,18.7011719,12.6699219,12.6743164z"/></svg>