<svg xmlns="http://www.w3.org/2000/svg" enable-background="new 0 0 32 32" viewBox="0 0 32 32"><path d="M30,1H2C1.447,1,1,1.448,1,2v28c0,0.552,0.447,1,1,1h28c0.553,0,1-0.448,1-1V2C31,1.448,30.553,1,30,1z M29,9h-4.586l2.293-2.293c0.391-0.391,0.391-1.023,0-1.414L24.414,3H29V9z M16.414,9l2.293-2.293c0.391-0.391,0.391-1.023,0-1.414L16.414,3h5.172l3,3l-3,3H16.414z M8.414,9l2.293-2.293c0.391-0.391,0.391-1.023,0-1.414L8.414,3h5.172l3,3l-3,3H8.414z M5.586,3l3,3l-3,3H3V3H5.586z M3,29V11h26v18H3z"/><path d="M20.53,19.152l-8-5c-0.31-0.193-0.698-0.204-1.015-0.026C11.197,14.302,11,14.636,11,15v10c0,0.364,0.197,0.698,0.516,0.875C11.666,25.958,11.833,26,12,26c0.185,0,0.368-0.051,0.53-0.152l8-5C20.822,20.665,21,20.345,21,20S20.822,19.335,20.53,19.152z M13,23.196v-6.392L18.113,20L13,23.196z"/></svg>